{"asset":{"version":"2.0","generator":"Blockbench 5.1.6 glTF exporter"},"scenes":[{"nodes":[12],"name":"blockbench_export"}],"scene":0,"nodes":[{"name":"Head","mesh":0},{"translation":[0,1.5,0],"name":"head","children":[0]},{"name":"Body","mesh":1},{"translation":[0,1.5,0],"name":"body","children":[2]},{"name":"Right Arm","mesh":2},{"translation":[0.3125,1.375,0],"name":"right_arm","children":[4]},{"name":"Left Arm","mesh":3},{"translation":[-0.3125,1.375,0],"name":"left_arm","children":[6]},{"name":"Right Leg","mesh":4},{"translation":[0.11875,0.75,0],"name":"right_leg","children":[8]},{"name":"Left Leg","mesh":5},{"translation":[-0.11875,0.75,0],"name":"left_leg","children":[10]},{"name":"root","children":[1,3,5,7,9,11]}],"bufferViews":[{"buffer":0,"byteOffset":0,"byteLength":288,"target":34962,"byteStride":12},{"buffer":0,"byteOffset":288,"byteLength":288,"target":34962,"byteStride":12},{"buffer":0,"byteOffset":576,"byteLength":192,"target":34962,"byteStride":8},{"buffer":0,"byteOffset":768,"byteLength":72,"target":34963},{"buffer":0,"byteOffset":840,"byteLength":288,"target":34962,"byteStride":12},{"buffer":0,"byteOffset":1128,"byteLength":288,"target":34962,"byteStride":12},{"buffer":0,"byteOffset":1416,"byteLength":192,"target":34962,"byteStride":8},{"buffer":0,"byteOffset":1608,"byteLength":72,"target":34963},{"buffer":0,"byteOffset":1680,"byteLength":288,"target":34962,"byteStride":12},{"buffer":0,"byteOffset":1968,"byteLength":288,"target":34962,"byteStride":12},{"buffer":0,"byteOffset":2256,"byteLength":192,"target":34962,"byteStride":8},{"buffer":0,"byteOffset":2448,"byteLength":72,"target":34963},{"buffer":0,"byteOffset":2520,"byteLength":288,"target":34962,"byteStride":12},{"buffer":0,"byteOffset":2808,"byteLength":288,"target":34962,"byteStride":12},{"buffer":0,"byteOffset":3096,"byteLength":192,"target":34962,"byteStride":8},{"buffer":0,"byteOffset":3288,"byteLength":72,"target":34963},{"buffer":0,"byteOffset":3360,"byteLength":288,"target":34962,"byteStride":12},{"buffer":0,"byteOffset":3648,"byteLength":288,"target":34962,"byteStride":12},{"buffer":0,"byteOffset":3936,"byteLength":192,"target":34962,"byteStride":8},{"buffer":0,"byteOffset":4128,"byteLength":72,"target":34963},{"buffer":0,"byteOffset":4200,"byteLength":288,"target":34962,"byteStride":12},{"buffer":0,"byteOffset":4488,"byteLength":288,"target":34962,"byteStride":12},{"buffer":0,"byteOffset":4776,"byteLength":192,"target":34962,"byteStride":8},{"buffer":0,"byteOffset":4968,"byteLength":72,"target":34963},{"buffer":0,"byteOffset":5040,"byteLength":12},{"buffer":0,"byteOffset":5052,"byteLength":48},{"buffer":0,"byteOffset":5100,"byteLength":16},{"buffer":0,"byteOffset":5116,"byteLength":64},{"buffer":0,"byteOffset":5180,"byteLength":16},{"buffer":0,"byteOffset":5196,"byteLength":64},{"buffer":0,"byteOffset":5260,"byteLength":20},{"buffer":0,"byteOffset":5280,"byteLength":80},{"buffer":0,"byteOffset":5360,"byteLength":16},{"buffer":0,"byteOffset":5376,"byteLength":48},{"buffer":0,"byteOffset":5424,"byteLength":16},{"buffer":0,"byteOffset":5440,"byteLength":48},{"buffer":0,"byteOffset":5488,"byteLength":44},{"buffer":0,"byteOffset":5532,"byteLength":176},{"buffer":0,"byteOffset":5708,"byteLength":20},{"buffer":0,"byteOffset":5728,"byteLength":60}],"buffers":[{"byteLength":5788,"uri":"data:application/octet-stream;base64,"}],"accessors":[{"bufferView":0,"componentType":5126,"count":24,"max":[0.25,0.5,0.25],"min":[-0.25,0,-0.25],"type":"VEC3"},{"bufferView":1,"componentType":5126,"count":24,"max":[1,1,1],"min":[-1,-1,-1],"type":"VEC3"},{"bufferView":2,"componentType":5126,"count":24,"max":[0.499755859375,0.249755859375],"min":[0.000244140625,0.000244140625],"type":"VEC2"},{"bufferView":3,"componentType":5123,"count":36,"max":[23],"min":[0],"type":"SCALAR"},{"bufferView":4,"componentType":5126,"count":24,"max":[0.25,0,0.125],"min":[-0.25,-0.75,-0.125],"type":"VEC3"},{"bufferView":5,"componentType":5126,"count":24,"max":[1,1,1],"min":[-1,-1,-1],"type":"VEC3"},{"bufferView":6,"componentType":5126,"count":24,"max":[0.624755859375,0.499755859375],"min":[0.250244140625,0.250244140625],"type":"VEC2"},{"bufferView":7,"componentType":5123,"count":36,"max":[23],"min":[0],"type":"SCALAR"},{"bufferView":8,"componentType":5126,"count":24,"max":[0.1875,0.125,0.125],"min":[-0.0625,-0.625,-0.125],"type":"VEC3"},{"bufferView":9,"componentType":5126,"count":24,"max":[1,1,1],"min":[-1,-1,-1],"type":"VEC3"},{"bufferView":10,"componentType":5126,"count":24,"max":[0.874755859375,0.499755859375],"min":[0.625244140625,0.250244140625],"type":"VEC2"},{"bufferView":11,"componentType":5123,"count":36,"max":[23],"min":[0],"type":"SCALAR"},{"bufferView":12,"componentType":5126,"count":24,"max":[0.0625,0.125,0.125],"min":[-0.1875,-0.625,-0.125],"type":"VEC3"},{"bufferView":13,"componentType":5126,"count":24,"max":[1,1,1],"min":[-1,-1,-1],"type":"VEC3"},{"bufferView":14,"componentType":5126,"count":24,"max":[0.749755859375,0.999755859375],"min":[0.500244140625,0.750244140625],"type":"VEC2"},{"bufferView":15,"componentType":5123,"count":36,"max":[23],"min":[0],"type":"SCALAR"},{"bufferView":16,"componentType":5126,"count":24,"max":[0.125,0,0.125],"min":[-0.125,-0.75,-0.125],"type":"VEC3"},{"bufferView":17,"componentType":5126,"count":24,"max":[1,1,1],"min":[-1,-1,-1],"type":"VEC3"},{"bufferView":18,"componentType":5126,"count":24,"max":[0.249755859375,0.499755859375],"min":[0.000244140625,0.250244140625],"type":"VEC2"},{"bufferView":19,"componentType":5123,"count":36,"max":[23],"min":[0],"type":"SCALAR"},{"bufferView":20,"componentType":5126,"count":24,"max":[0.125,0,0.125],"min":[-0.125,-0.75,-0.125],"type":"VEC3"},{"bufferView":21,"componentType":5126,"count":24,"max":[1,1,1],"min":[-1,-1,-1],"type":"VEC3"},{"bufferView":22,"componentType":5126,"count":24,"max":[0.499755859375,0.999755859375],"min":[0.250244140625,0.750244140625],"type":"VEC2"},{"bufferView":23,"componentType":5123,"count":36,"max":[23],"min":[0],"type":"SCALAR"},{"bufferView":24,"componentType":5126,"count":3,"max":[3.25],"min":[0],"type":"SCALAR"},{"bufferView":25,"componentType":5126,"count":3,"max":[0,0,0,1],"min":[-0.44228869676589966,0,0,0.8968727588653564],"type":"VEC4"},{"bufferView":26,"componentType":5126,"count":4,"max":[3.25],"min":[0],"type":"SCALAR"},{"bufferView":27,"componentType":5126,"count":4,"max":[0,0,0,1],"min":[-0.3214394748210907,0,0,0.9469301104545593],"type":"VEC4"},{"bufferView":28,"componentType":5126,"count":4,"max":[3.25],"min":[0.5],"type":"SCALAR"},{"bufferView":29,"componentType":5126,"count":4,"max":[0.6963642239570618,0.12278780341148376,0,1],"min":[0,0,-0.12278780341148376,0.6963642239570618],"type":"VEC4"},{"bufferView":30,"componentType":5126,"count":5,"max":[3.25],"min":[0.5],"type":"SCALAR"},{"bufferView":31,"componentType":5126,"count":5,"max":[0.6963642239570618,0,0.12278780341148376,1],"min":[0,-0.12278780341148376,0,0.6963642239570618],"type":"VEC4"},{"bufferView":32,"componentType":5126,"count":4,"max":[3.25],"min":[0],"type":"SCALAR"},{"bufferView":33,"componentType":5126,"count":4,"max":[0.11874999850988388,0.875,0.375],"min":[0.11874999850988388,0.75,0],"type":"VEC3"},{"bufferView":34,"componentType":5126,"count":4,"max":[3.25],"min":[0],"type":"SCALAR"},{"bufferView":35,"componentType":5126,"count":4,"max":[-0.11874999850988388,0.875,0.4375],"min":[-0.11874999850988388,0.75,0],"type":"VEC3"},{"bufferView":36,"componentType":5126,"count":11,"max":[2.75],"min":[0.5],"type":"SCALAR"},{"bufferView":37,"componentType":5126,"count":11,"max":[0.6087614297866821,0.7933533191680908,0.6087614297866821,1],"min":[-0.6087614297866821,-0.7933533191680908,-0.6087614297866821,-0.7933533191680908],"type":"VEC4"},{"bufferView":38,"componentType":5126,"count":5,"max":[3.25],"min":[0],"type":"SCALAR"},{"bufferView":39,"componentType":5126,"count":5,"max":[0,2.4375,0],"min":[0,-0.4375,0],"type":"VEC3"}],"materials":[{"pbrMetallicRoughness":{"metallicFactor":0,"roughnessFactor":1,"baseColorTexture":{"index":0}},"alphaMode":"MASK","alphaCutoff":0.05,"doubleSided":true}],"textures":[{"sampler":0,"source":0,"name":"player_skin_template.png"}],"samplers":[{"magFilter":9728,"minFilter":9728,"wrapS":33071,"wrapT":33071}],"images":[{"mimeType":"image/png","name":"player_skin_template.png","uri":"player_skin_template.png"}],"meshes":[{"primitives":[{"mode":4,"attributes":{"POSITION":0,"NORMAL":1,"TEXCOORD_0":2},"indices":3,"material":0}]},{"primitives":[{"mode":4,"attributes":{"POSITION":4,"NORMAL":5,"TEXCOORD_0":6},"indices":7,"material":0}]},{"primitives":[{"mode":4,"attributes":{"POSITION":8,"NORMAL":9,"TEXCOORD_0":10},"indices":11,"material":0}]},{"primitives":[{"mode":4,"attributes":{"POSITION":12,"NORMAL":13,"TEXCOORD_0":14},"indices":15,"material":0}]},{"primitives":[{"mode":4,"attributes":{"POSITION":16,"NORMAL":17,"TEXCOORD_0":18},"indices":19,"material":0}]},{"primitives":[{"mode":4,"attributes":{"POSITION":20,"NORMAL":21,"TEXCOORD_0":22},"indices":23,"material":0}]}],"animations":[{"name":"player_actobatic","samplers":[{"input":24,"output":25,"interpolation":"LINEAR"},{"input":26,"output":27,"interpolation":"LINEAR"},{"input":28,"output":29,"interpolation":"LINEAR"},{"input":30,"output":31,"interpolation":"LINEAR"},{"input":32,"output":33,"interpolation":"LINEAR"},{"input":34,"output":35,"interpolation":"LINEAR"},{"input":36,"output":37,"interpolation":"LINEAR"},{"input":38,"output":39,"interpolation":"LINEAR"}],"channels":[{"sampler":0,"target":{"node":1,"path":"rotation"}},{"sampler":1,"target":{"node":3,"path":"rotation"}},{"sampler":2,"target":{"node":5,"path":"rotation"}},{"sampler":3,"target":{"node":7,"path":"rotation"}},{"sampler":4,"target":{"node":9,"path":"translation"}},{"sampler":5,"target":{"node":11,"path":"translation"}},{"sampler":6,"target":{"node":12,"path":"rotation"}},{"sampler":7,"target":{"node":12,"path":"translation"}}]}]}